<mxfile host="app.diagrams.net" modified="2023-04-27T00:06:32.466Z" agent="Mozilla/5.0 (Windows NT 10.0; Win64; x64) AppleWebKit/537.36 (KHTML, like Gecko) Chrome/112.0.0.0 Safari/537.36" etag="UZcq0RCg7aGV_aZimkXy" version="21.1.9" type="device" pages="2">
  <diagram name="Página-1" id="38NM3NOhqvVe4RH7hOKJ">
    <mxGraphModel dx="683" dy="436" grid="1" gridSize="10" guides="1" tooltips="1" connect="1" arrows="1" fold="1" page="1" pageScale="1" pageWidth="827" pageHeight="1169" math="0" shadow="0">
      <root>
        <mxCell id="0" />
        <mxCell id="1" parent="0" />
        <mxCell id="TSw_GO-XD06O8jJP21ma-1" value="Codificacion" style="rounded=1;whiteSpace=wrap;html=1;" vertex="1" parent="1">
          <mxGeometry x="530" y="340" width="120" height="60" as="geometry" />
        </mxCell>
        <mxCell id="TSw_GO-XD06O8jJP21ma-2" value="Analisis de requerimientos" style="rounded=1;whiteSpace=wrap;html=1;fillColor=#d5e8d4;strokeColor=#82b366;" vertex="1" parent="1">
          <mxGeometry x="130" y="160" width="120" height="60" as="geometry" />
        </mxCell>
        <mxCell id="TSw_GO-XD06O8jJP21ma-4" value="Analisis y Diseno" style="rounded=1;whiteSpace=wrap;html=1;fillColor=#dae8fc;strokeColor=#6c8ebf;" vertex="1" parent="1">
          <mxGeometry x="130" y="250" width="120" height="60" as="geometry" />
        </mxCell>
        <mxCell id="TSw_GO-XD06O8jJP21ma-5" value="Construccion" style="rounded=1;whiteSpace=wrap;html=1;fillColor=#f8cecc;strokeColor=#b85450;" vertex="1" parent="1">
          <mxGeometry x="130" y="340" width="120" height="60" as="geometry" />
        </mxCell>
        <mxCell id="TSw_GO-XD06O8jJP21ma-6" value="Certificacion" style="rounded=1;whiteSpace=wrap;html=1;fillColor=#e1d5e7;strokeColor=#9673a6;" vertex="1" parent="1">
          <mxGeometry x="130" y="430" width="120" height="60" as="geometry" />
        </mxCell>
        <mxCell id="TSw_GO-XD06O8jJP21ma-7" value="Implementacion, Despliegue, Mantenimiento" style="rounded=1;whiteSpace=wrap;html=1;fillColor=#60a917;strokeColor=#2D7600;fontColor=#ffffff;" vertex="1" parent="1">
          <mxGeometry x="130" y="510" width="120" height="60" as="geometry" />
        </mxCell>
        <mxCell id="TSw_GO-XD06O8jJP21ma-9" value="Trello" style="rounded=1;whiteSpace=wrap;html=1;" vertex="1" parent="1">
          <mxGeometry x="290" y="175" width="110" height="30" as="geometry" />
        </mxCell>
        <mxCell id="TSw_GO-XD06O8jJP21ma-10" value="Jira" style="rounded=1;whiteSpace=wrap;html=1;" vertex="1" parent="1">
          <mxGeometry x="330" y="220" width="110" height="30" as="geometry" />
        </mxCell>
        <mxCell id="TSw_GO-XD06O8jJP21ma-11" value="Project" style="rounded=1;whiteSpace=wrap;html=1;" vertex="1" parent="1">
          <mxGeometry x="450" y="175" width="110" height="30" as="geometry" />
        </mxCell>
        <mxCell id="TSw_GO-XD06O8jJP21ma-12" value="Gitlab" style="rounded=1;whiteSpace=wrap;html=1;" vertex="1" parent="1">
          <mxGeometry x="490" y="220" width="110" height="30" as="geometry" />
        </mxCell>
        <mxCell id="TSw_GO-XD06O8jJP21ma-13" value="Tiempos" style="rounded=1;whiteSpace=wrap;html=1;" vertex="1" parent="1">
          <mxGeometry x="580" y="280" width="80" height="20" as="geometry" />
        </mxCell>
        <mxCell id="TSw_GO-XD06O8jJP21ma-14" value="Trello" style="rounded=1;whiteSpace=wrap;html=1;" vertex="1" parent="1">
          <mxGeometry x="290" y="520" width="110" height="30" as="geometry" />
        </mxCell>
      </root>
    </mxGraphModel>
  </diagram>
  <diagram id="j51hPp2fcXmhYQ1tsIVE" name="Página-2">
    <mxGraphModel dx="1434" dy="916" grid="1" gridSize="10" guides="1" tooltips="1" connect="1" arrows="1" fold="1" page="1" pageScale="1" pageWidth="827" pageHeight="1169" math="0" shadow="0">
      <root>
        <mxCell id="0" />
        <mxCell id="1" parent="0" />
        <mxCell id="LMcp3vLaIQNUae4liVhy-1" value="" style="whiteSpace=wrap;html=1;aspect=fixed;" vertex="1" parent="1">
          <mxGeometry x="220" y="260" width="570" height="570" as="geometry" />
        </mxCell>
        <mxCell id="LMcp3vLaIQNUae4liVhy-2" value="barra de navegacion" style="rounded=0;whiteSpace=wrap;html=1;" vertex="1" parent="1">
          <mxGeometry x="280" y="300" width="430" height="30" as="geometry" />
        </mxCell>
        <mxCell id="LMcp3vLaIQNUae4liVhy-3" value="" style="whiteSpace=wrap;html=1;aspect=fixed;" vertex="1" parent="1">
          <mxGeometry x="280" y="370" width="430" height="430" as="geometry" />
        </mxCell>
      </root>
    </mxGraphModel>
  </diagram>
</mxfile>
